<svg xmlns="http://www.w3.org/2000/svg" xmlns:xlink="http://www.w3.org/1999/xlink" version="1.1" enable-background="new 0 0 1000 1000" xml:space="preserve" width="1000" height="1000" style=""><rect id="backgroundrect" width="100%" height="100%" x="0" y="0" fill="none" stroke="none"/>
<metadata> Svg Vector Icons : http://www.onlinewebfonts.com/icon </metadata>

<g class="currentLayer" style=""><title>Layer 1</title><g id="svg_1" class="selected" fill-opacity="1" fill="#32cd32"><path d="M632.5,667.9c1.6,0.7,3.3,0.9,5,1c0.2,0,0.3,0.1,0.5,0.1c0.3,0,0.6-0.2,0.9-0.2c1.2,0,2.5-0.3,3.6-0.7c0.5-0.1,0.9-0.3,1.4-0.5c1.5-0.7,3-1.6,4.2-2.8l81.4-81.3l81.4,81.3c1.2,1.3,2.7,2.1,4.2,2.8c0.5,0.2,1,0.4,1.4,0.5c1.2,0.4,2.4,0.7,3.6,0.7c0.3,0,0.6,0.2,0.9,0.2c0.2,0,0.4-0.1,0.6-0.1c1.7-0.1,3.4-0.3,5-1c1.8-0.8,3.4-1.8,4.7-3.1c2.7-2.6,4.2-6.3,4.2-10.2V239.1V170v-48.4c0-3.8-1.5-7.5-4.2-10.2c-2.7-2.7-6.4-4.2-10.2-4.2H638l0,0c-1.4,0-2.6,0.4-3.9,0.8c-0.6,0.1-1.2,0.1-1.7,0.3c-5.2,2.2-8.8,7.3-8.8,13.3v48.1v68.9v416.1C623.6,660.4,627.1,665.7,632.5,667.9z" id="svg_2" fill="#32cd32"/><path d="M141,407c0,7.5,6.1,13.6,13.6,13.6h230.1c7.5,0,13.6-6.1,13.6-13.6c0-7.6-6.1-13.7-13.6-13.7H154.6C147.1,393.3,141,399.4,141,407z" id="svg_3" fill="#32cd32"/><path d="M384.7,505.5H154.6c-7.5,0-13.6,6.1-13.6,13.6s6.1,13.7,13.6,13.7h230.1c7.5,0,13.6-6.1,13.6-13.7C398.3,511.6,392.3,505.5,384.7,505.5z" id="svg_4" fill="#32cd32"/><path d="M384.7,617.7H154.6c-7.5,0-13.6,6.1-13.6,13.6c0,7.5,6.1,13.6,13.6,13.6h230.1c7.5,0,13.6-6.1,13.6-13.6C398.3,623.8,392.3,617.7,384.7,617.7z" id="svg_5" fill="#32cd32"/><path d="M876.4,177.6V248c24.2,6.8,39.6,14.2,45.4,19.9v551.2c-121.2-16.6-266.6-16.6-387.8,0V267.9c6-6,22.6-13.8,48.6-20.8v-70.2c-32.9,7.4-61.9,17.8-82.7,31.8c-49.2-33.2-143.5-46.1-228-46.1c-120.9,0-262,26.4-262,100.9v595.2c0,10.1,4.4,19.6,12.1,26.1c7.7,6.5,17.9,9.2,27.8,7.5c67-11.6,143.8-17.7,222.1-17.7c78.3,0,155.2,6.2,222.2,17.7c0.9,0.2,1.9,0.2,2.8,0.3c0.7,0.1,1.4,0.2,2,0.2c0.3,0,0.6,0.1,1,0.1c1.8,0,3.7-0.2,5.4-0.5c0.1,0,0.3,0,0.4,0c67-11.6,143.8-17.7,222.2-17.7c78.3,0,155.1,6.2,222.1,17.7c1.9,0.3,3.9,0.5,5.8,0.5c8,0,15.8-2.8,21.9-8c7.7-6.5,12.1-16,12.1-26.1V263.5C990,219.7,941.2,192.6,876.4,177.6z M465.9,819.1c-60.6-8.3-126.8-12.6-193.9-12.6c-67.1,0-133.3,4.3-193.9,12.6V267.9c13.8-13.5,81.9-37.1,193.9-37.1c112.1,0,180.1,23.6,193.9,37.1V819.1z" id="svg_6" fill="#32cd32"/></g></g></svg>